<svg xmlns="http://www.w3.org/2000/svg" width="71.169" height="71.169" viewBox="0 0 71.169 71.169">
  <path id="logo-facebook" d="M131.24,64H67.929A3.931,3.931,0,0,0,64,67.929v63.31a3.931,3.931,0,0,0,3.929,3.929H99.584V107H91.077V96.619h8.507V88.946c0-9.193,6.376-14.2,14.586-14.2,3.929,0,8.155.3,9.137.426v9.6h-6.542c-4.467,0-5.319,2.113-5.319,5.226v6.616h10.638L120.694,107h-9.248v28.171H131.24a3.931,3.931,0,0,0,3.929-3.929V67.929A3.931,3.931,0,0,0,131.24,64Z" transform="translate(-64 -64)" fill="#f9f9f9"/>
</svg>
